<svg width="612" height="804" viewBox="0 0 612 804" fill="none" xmlns="http://www.w3.org/2000/svg">
<path d="M556.729 2C526.975 2 502.857 26.1185 502.857 55.8721V197.06C502.857 286.929 442.304 362.867 359.872 386.364V109.744H367.953C397.706 109.744 421.825 85.6256 421.825 55.8721C421.825 26.1185 397.706 2 367.953 2H244.047C214.294 2 190.175 26.1185 190.175 55.8721C190.175 85.6256 214.294 109.744 244.047 109.744H252.128V386.364C169.696 362.87 109.141 286.929 109.141 197.06V55.8721C109.141 26.1185 85.0222 2 55.2687 2C25.5151 2 1.39661 26.1185 1.39661 55.8721V197.06C1.39661 346.641 109.774 471.385 252.128 496.893V694.256H244.047C214.294 694.256 190.175 718.374 190.175 748.128C190.175 777.882 214.294 802 244.047 802H367.953C397.706 802 421.825 777.882 421.825 748.128C421.825 718.374 397.706 694.256 367.953 694.256H359.872V496.893C502.224 471.382 610.601 346.638 610.601 197.06V55.8721C610.601 26.1185 586.482 2 556.729 2Z" fill="#9D957B" stroke="#9D957B" stroke-width="2.6936"/>
</svg>
